<svg width="28" height="27" viewBox="0 0 28 27" fill="none" xmlns="http://www.w3.org/2000/svg">
    <ellipse cx="14.05" cy="13.5" rx="13.95" ry="13.5" fill="white" fill-opacity="0.3" />
    <path
        d="M9.78139 8.66498L15.7202 7.07798L15.4057 6.45562C15.1999 6.05109 14.6981 5.88404 14.2848 6.08548L8.96835 8.66498H9.78139Z"
        fill="white" />
    <path
        d="M17.5643 7.125C17.4907 7.125 17.4171 7.13483 17.3434 7.15448L15.9483 7.52789L11.6873 8.66614H16.5237H18.6316L18.3706 7.72934C18.2702 7.36411 17.9323 7.125 17.5643 7.125Z"
        fill="white" />
    <path
        d="M19.5025 9.23822H19.3118H19.0525H18.7932H16.8141H9.54199H8.58843H7.78544H7.63655H7.13802C6.8737 9.23822 6.63782 9.35778 6.48392 9.54612C6.41365 9.63292 6.36012 9.73283 6.33001 9.84256C6.31161 9.91134 6.2999 9.98341 6.2999 10.0571V10.1554V11.0889V19.1811C6.2999 19.6332 6.67463 20 7.13635 20H19.5008C19.9625 20 20.3373 19.6332 20.3373 19.1811V16.8964H15.3737C14.5891 16.8964 13.9518 16.2725 13.9518 15.5043V14.7542V14.5004V14.2465V13.6831C13.9518 13.3064 14.1057 12.9642 14.3549 12.7136C14.5758 12.4908 14.8719 12.3402 15.2031 12.3025C15.2583 12.296 15.3152 12.2927 15.3721 12.2927H19.6413H19.9006H20.1599H20.3373V10.0571C20.3389 9.60508 19.9642 9.23822 19.5025 9.23822Z"
        fill="white" />
    <path
        d="M20.9244 13.0739C20.8407 12.9986 20.742 12.9412 20.6316 12.9036C20.5463 12.8758 20.4559 12.8594 20.3606 12.8594H20.3388H20.3221H20.0628H19.1277H15.3737C14.9119 12.8594 14.5372 13.2262 14.5372 13.6783V14.0861V14.3399V14.5938V15.5011C14.5372 15.9531 14.9119 16.32 15.3737 16.32H20.3388H20.3606C20.4559 16.32 20.5463 16.3036 20.6316 16.2758C20.742 16.2397 20.8407 16.1808 20.9244 16.1054C21.0916 15.9564 21.197 15.7402 21.197 15.5011V13.6783C21.197 13.4391 21.0916 13.2229 20.9244 13.0739ZM17.1202 14.7526C17.1202 14.9786 16.9328 15.1621 16.7019 15.1621H16.4242C16.1934 15.1621 16.006 14.9786 16.006 14.7526V14.4808C16.006 14.3497 16.0679 14.2334 16.1666 14.1597C16.2385 14.1057 16.3272 14.0713 16.4242 14.0713H16.4945H16.7019C16.9328 14.0713 17.1202 14.2547 17.1202 14.4808V14.7526Z"
        fill="white" />
</svg>
    