<svg width="27" height="27" viewBox="0 0 27 27" fill="none" xmlns="http://www.w3.org/2000/svg">
    <g opacity="0.3">
        <circle cx="13.5" cy="13.5" r="13.5" fill="white" />
        <circle cx="13.5" cy="13.5" r="13" stroke="white" stroke-opacity="0.3" />
    </g>
    <path
        d="M17.0549 15.1068C16.9295 14.255 16.503 13.4763 15.8526 12.912C15.2023 12.3477 14.3713 12.0352 13.5102 12.0312H12.7078C11.8468 12.0352 11.0157 12.3477 10.3654 12.912C9.71505 13.4763 9.28851 14.255 9.16315 15.1068L8.77852 17.7962C8.76623 17.8831 8.77435 17.9717 8.80223 18.055C8.83011 18.1382 8.87699 18.2139 8.93916 18.2759C9.08999 18.4267 10.0154 19.196 13.1098 19.196C16.2042 19.196 17.1273 18.4297 17.2804 18.2759C17.3426 18.2139 17.3894 18.1382 17.4173 18.055C17.4452 17.9717 17.4533 17.8831 17.441 17.7962L17.0549 15.1068Z"
        fill="white" />
    <path
        d="M9.75951 12.4461C9.03061 13.1181 8.55636 14.0213 8.41706 15.0028L8.13802 16.9335C5.8981 16.9184 5.21934 16.1039 5.10621 15.938C5.06248 15.8777 5.03128 15.8093 5.01444 15.7368C4.9976 15.6642 4.99547 15.589 5.00817 15.5157L5.17409 14.5805C5.26053 14.0917 5.46356 13.631 5.76595 13.2374C6.06834 12.8439 6.46118 12.529 6.91115 12.3196C7.36113 12.1101 7.85498 12.0123 8.35082 12.0343C8.84666 12.0563 9.32988 12.1976 9.75951 12.4461Z"
        fill="white" />
    <path
        d="M21.2079 15.5157C21.2206 15.589 21.2185 15.6642 21.2016 15.7368C21.1848 15.8093 21.1536 15.8777 21.1098 15.938C20.9967 16.1039 20.3179 16.9184 18.078 16.9335L17.799 15.0028C17.6597 14.0213 17.1854 13.1181 16.4565 12.4461C16.8862 12.1976 17.3694 12.0563 17.8652 12.0343C18.3611 12.0123 18.8549 12.1101 19.3049 12.3196C19.7549 12.529 20.1477 12.8439 20.4501 13.2374C20.7525 13.631 20.9555 14.0917 21.042 14.5805L21.2079 15.5157Z"
        fill="white" />
    <path
        d="M9.88766 10.7885C9.69781 11.0577 9.44579 11.2772 9.15299 11.4282C8.86019 11.5792 8.53527 11.6573 8.20583 11.6558C7.8772 11.6558 7.55328 11.5777 7.26075 11.428C6.96823 11.2782 6.71547 11.0611 6.52332 10.7945C6.33117 10.5279 6.20512 10.2195 6.15556 9.89459C6.106 9.56972 6.13435 9.23772 6.23827 8.92595C6.34219 8.61419 6.51871 8.33158 6.75328 8.10142C6.98785 7.87126 7.27375 7.70014 7.58743 7.60215C7.90112 7.50417 8.23359 7.48212 8.55746 7.53784C8.88133 7.59355 9.18733 7.72543 9.45023 7.92261C9.37461 8.21833 9.3366 8.5224 9.3371 8.82763C9.33768 9.51932 9.52812 10.1976 9.88766 10.7885Z"
        fill="white" />
    <path
        d="M20.0842 9.58181C20.0844 9.85423 20.0309 10.124 19.9267 10.3757C19.8226 10.6274 19.6698 10.8562 19.4772 11.0488C19.2845 11.2414 19.0558 11.3942 18.8041 11.4983C18.5524 11.6025 18.2826 11.656 18.0102 11.6558C17.6808 11.6573 17.3558 11.5792 17.063 11.4282C16.7702 11.2772 16.5182 11.0577 16.3284 10.7885C16.6879 10.1976 16.8783 9.51932 16.8789 8.82763C16.8794 8.5224 16.8414 8.21833 16.7658 7.92261C17.0739 7.69151 17.4403 7.55078 17.8239 7.51619C18.2075 7.4816 18.5932 7.55452 18.9377 7.72677C19.2822 7.89902 19.5719 8.1638 19.7744 8.49145C19.9769 8.81909 20.0842 9.19664 20.0842 9.58181Z"
        fill="white" />
    <path
        d="M13.1081 11.6565C14.67 11.6565 15.9363 10.3903 15.9363 8.82836C15.9363 7.2664 14.67 6.00018 13.1081 6.00018C11.5461 6.00018 10.2799 7.2664 10.2799 8.82836C10.2799 10.3903 11.5461 11.6565 13.1081 11.6565Z"
        fill="white" />
</svg>
    