<svg width="27" height="27" viewBox="0 0 27 27" fill="none" xmlns="http://www.w3.org/2000/svg">
    <circle opacity="0.3" cx="13.5" cy="13.5" r="13.5" fill="white" />
    <path
        d="M18.614 13.8398C18.6875 14.1738 18.7243 14.5191 18.7243 14.8673C18.7243 16.3363 18.0511 17.709 16.9282 18.612C17.0583 18.7478 17.1799 18.8893 17.2931 19.0422C18.5433 18.0374 19.29 16.5033 19.29 14.8673C19.29 14.5191 19.256 14.1767 19.191 13.8398H18.614Z"
        fill="white" />
    <path
        d="M9.36975 9.91586C10.453 9.91586 11.3327 9.03276 11.3327 7.95153C11.2353 5.34924 7.50562 5.34973 7.4068 7.95156C7.4068 9.03276 8.28928 9.91586 9.36975 9.91586Z"
        fill="white" />
    <path
        d="M12.5489 12.6139C13.2073 11.4883 12.0189 10.2996 11.1036 9.78911C10.2198 10.6978 8.51961 10.6974 7.6359 9.78906C6.72285 10.2991 5.53118 11.4887 6.19054 12.6139C6.43947 13.0271 6.87504 13.2734 7.35588 13.2734H11.3836C11.8673 13.2734 12.3028 13.0271 12.5489 12.6139Z"
        fill="white" />
    <path
        d="M11.9529 16.5112C11.9529 17.5924 12.8354 18.4755 13.9158 18.4755C16.5165 18.3762 16.5156 14.6439 13.9158 14.5469C12.8354 14.5469 11.9529 15.4271 11.9529 16.5112Z"
        fill="white" />
    <path
        d="M15.6499 18.3516C14.7661 19.2603 13.0659 19.2599 12.1822 18.3516C11.5684 18.6828 11.0508 19.1894 10.7058 19.8291C10.2047 20.693 10.9042 21.8689 11.9022 21.8359L15.9299 21.8359C16.9313 21.8689 17.6264 20.6932 17.1263 19.8291C16.7813 19.1894 16.2665 18.6828 15.6499 18.3516Z"
        fill="white" />
    <path
        d="M12.5668 10.2586C13.4408 10.0067 14.3883 10.0067 15.2623 10.2586C15.4037 10.0972 15.5536 9.94722 15.7149 9.80853C14.5609 9.40095 13.2683 9.40378 12.1143 9.80853C12.2783 9.94439 12.4282 10.0944 12.5668 10.2586Z"
        fill="white" />
    <path
        d="M9.10768 14.8673C9.10768 14.5191 9.14445 14.1738 9.21799 13.8398H8.64098C8.57593 14.1767 8.54199 14.5191 8.54199 14.8673C8.54199 16.5033 9.29154 18.0402 10.5417 19.0422C10.652 18.8893 10.7765 18.7478 10.9066 18.612C9.78086 17.7119 9.10768 16.3363 9.10768 14.8673Z"
        fill="white" />
    <path
        d="M18.4616 9.91586C19.5449 9.91586 20.4245 9.03276 20.4245 7.95153C20.3271 5.34924 16.5974 5.34973 16.4986 7.95156C16.4986 9.03276 17.3811 9.91586 18.4616 9.91586Z"
        fill="white" />
    <path
        d="M21.6718 11.2666C21.3268 10.6269 20.812 10.1203 20.1954 9.78911C19.3116 10.6978 17.6114 10.6974 16.7277 9.78906C15.8146 10.2991 14.623 11.4887 15.2823 12.6139C15.5313 13.0271 15.9668 13.2734 16.4477 13.2734H20.4754C21.4768 13.3064 22.1719 12.1307 21.6718 11.2666Z"
        fill="white" />
</svg>
    