<svg width="27" height="27" viewBox="0 0 27 27" fill="none" xmlns="http://www.w3.org/2000/svg">
    <path
        d="M21.6031 16.2507C21.3126 16.2251 21.0247 16.1188 20.9102 15.818C20.7828 15.5363 20.9142 15.2547 21.0969 15.0346C21.1789 14.9215 21.1647 14.7688 21.0686 14.6698L19.957 13.5583C19.858 13.4622 19.7053 13.448 19.5922 13.53L19.4281 13.646C19.0695 13.9234 18.4689 13.6844 18.4099 13.2246C18.4099 13.2246 18.376 13.0238 18.376 13.0238C18.3533 12.888 18.2374 12.7891 18.0988 12.7891H16.5262C16.3876 12.7891 16.2717 12.888 16.249 13.0238L16.2151 13.2246C16.1577 13.676 15.5633 13.929 15.1969 13.646C15.1969 13.646 15.0328 13.53 15.0328 13.53C14.9197 13.448 14.767 13.4622 14.668 13.5583L13.5564 14.6698C13.4603 14.7688 13.4461 14.9215 13.5281 15.0346L13.6441 15.1987C13.9215 15.5572 13.6825 16.1578 13.2227 16.2168C13.2227 16.2168 13.0219 16.2507 13.0219 16.2507C12.8861 16.2734 12.7871 16.3893 12.7871 16.5279V18.1004C12.7871 18.2389 12.8861 18.3549 13.0219 18.3775L13.2227 18.4115C13.4433 18.4482 13.6243 18.5925 13.7148 18.8102C13.7997 19.0167 13.7742 19.2486 13.6441 19.4296C13.5235 19.5859 13.3809 19.7757 13.5564 19.9585C13.5564 19.9585 14.668 21.0699 14.668 21.0699C14.767 21.1661 14.9197 21.1802 15.0328 21.0982C15.2561 20.9119 15.5345 20.7851 15.8276 20.9172C16.118 21.0248 16.223 21.3192 16.249 21.6045C16.2717 21.7402 16.3876 21.8392 16.5262 21.8392H18.0988C18.2374 21.8392 18.3533 21.7402 18.376 21.6045L18.4099 21.4037C18.4673 20.9523 19.0617 20.6993 19.4281 20.9823C19.5844 21.1029 19.7742 21.2455 19.957 21.0699C19.957 21.0699 21.0686 19.9585 21.0686 19.9585C21.1647 19.8595 21.1789 19.7068 21.0969 19.5936C20.9105 19.3704 20.7837 19.092 20.9159 18.7989C21.0234 18.5086 21.3178 18.4035 21.6031 18.3776C21.7389 18.3549 21.8379 18.2389 21.8379 18.1004V16.5279C21.8379 16.3893 21.7389 16.2734 21.6031 16.2507ZM17.3125 20.0009C15.8742 20.0297 14.5954 18.7556 14.6256 17.3141C14.6131 14.9468 17.5377 13.7302 19.2104 15.4108C20.8985 17.0859 19.6834 20.0121 17.3125 20.0009Z"
        fill="white" />
    <path
        d="M17.3124 15.1919C15.7514 15.1548 14.6778 16.9428 15.4373 18.3029C16.4776 20.2417 19.4187 19.5156 19.4337 17.313C19.4612 16.183 18.4482 15.1635 17.3124 15.1919ZM17.1625 17.0302H17.4624C18.3582 17.0456 18.464 18.3197 17.5953 18.4895C17.6426 18.9399 16.9952 18.954 17.0296 18.5008C17.0296 18.5008 16.7072 18.5008 16.7072 18.5008C16.5516 18.5008 16.4243 18.3764 16.4243 18.218C16.4243 18.0624 16.5516 17.9352 16.7072 17.9352H17.4624C17.5585 17.9352 17.6349 17.8588 17.6349 17.7655C17.6283 17.5268 17.3138 17.6095 17.1625 17.5958C16.2667 17.5803 16.1609 16.3063 17.0296 16.1365C16.9823 15.6861 17.6297 15.672 17.5953 16.1252C17.5953 16.1252 17.9177 16.1252 17.9177 16.1252C18.2891 16.1306 18.2899 16.6835 17.9177 16.6908H17.1625C16.9367 16.692 16.9367 17.0291 17.1625 17.0302Z"
        fill="white" />
    <path
        d="M13.1547 20.3519C12.7914 19.9783 12.8599 19.4662 13.183 19.1018C13.2056 19.0707 13.2 19.0424 13.1915 19.0226C13.1717 18.9745 13.1434 18.9689 13.1293 18.966C12.637 18.9345 12.2226 18.6186 12.2213 18.0978C12.2213 18.0978 12.2213 16.5253 12.2213 16.5253C12.2213 16.1096 12.5183 15.7589 12.9284 15.691C12.9788 15.6739 13.171 15.6767 13.1858 15.6118C13.2084 15.5581 13.1915 15.5355 13.1858 15.527L13.067 15.3573C12.8266 15.0292 12.8606 14.5711 13.1519 14.2741L14.2691 13.157C14.6322 12.7911 15.1599 12.8589 15.522 13.1824C15.5712 13.2252 15.6619 13.1668 15.6578 13.1287C15.6883 12.6379 16.0064 12.2213 16.5261 12.2209C16.5261 12.2209 17.3831 12.2209 17.3831 12.2209C16.8372 11.4403 16.116 10.7841 15.2703 10.3288C15.0299 10.7898 14.5491 11.0896 14.0173 11.0896H10.9316C10.4084 11.0896 9.91621 10.7983 9.67864 10.3203C6.89552 11.8108 5.61992 15.4167 6.88421 18.3212C5.28053 19.3196 6.00176 21.8423 7.89677 21.8366H14.6368C14.4075 21.6045 13.4053 20.6056 13.1547 20.3519Z"
        fill="white" />
    <path
        d="M9.48126 8.5625C9.7047 8.88491 9.96489 9.11962 10.1855 9.28081C9.87348 9.817 10.3126 10.5416 10.9293 10.5251C10.9293 10.5251 14.0177 10.5251 14.0177 10.5251C14.6337 10.5421 15.0744 9.81764 14.7615 9.28079C15.322 8.89817 15.8376 8.12142 15.9607 7.39169C16.1172 6.69489 15.5307 5.98228 14.8181 6.00034C14.8181 6.00032 10.1289 6.00032 10.1289 6.00032C9.41679 5.98265 8.82934 6.69458 8.98633 7.39173C9.074 7.82156 9.23804 8.21466 9.48126 8.5625Z"
        fill="white" />
    <circle cx="13.5" cy="13.5" r="13.5" fill="white" fill-opacity="0.3" />
</svg>
    