<svg width="24" height="24" viewBox="0 0 24 24" fill="none" xmlns="http://www.w3.org/2000/svg">
    <path opacity="1" d="M17.1325 6.16076C17.3584 5.72395 17.4774 5.23886 17.4784 4.74559V4.7454C17.4784 3.34104 16.5084 1.90934 14.6526 1.90934C13.7991 1.90934 13.0699 2.20686 12.4901 2.79659C12.2242 3.06601 12.014 3.38005 11.8445 3.7088C11.6782 3.3797 11.4719 3.06786 11.2117 2.79861L11.2114 2.79823C10.6345 2.20819 9.90805 1.90934 9.05556 1.90934C7.96048 1.90934 7.29546 2.39915 6.93061 2.81292L6.9306 2.81293C6.4776 3.32675 6.22981 4.01309 6.22981 4.74518L6.22981 4.74538C6.23091 5.2387 6.34982 5.72385 6.57568 6.16076H3.53844C2.63855 6.16076 1.90909 6.89022 1.90909 7.7901V11.6484C1.90909 12.5176 2.58993 13.2281 3.44753 13.2752V19.7091C3.44751 20.0173 3.50822 20.3225 3.62618 20.6072C3.74413 20.8919 3.91702 21.1506 4.13498 21.3685C4.13498 21.3685 4.13499 21.3685 4.13499 21.3685L4.19927 21.3042M17.1325 6.16076L18.2052 22.0559L18.2053 21.965M17.1325 6.16076H20.7591C21.1123 6.16076 21.4511 6.30108 21.7008 6.55084C21.9506 6.8006 22.0909 7.13935 22.0909 7.49256V11.6498C22.0909 12.5192 21.41 13.2295 20.5524 13.2767V19.7096C20.5524 20.0178 20.4917 20.323 20.3737 20.6077C20.2558 20.8924 20.0829 21.1511 19.8649 21.369L19.8006 21.3047M17.1325 6.16076L20.4615 13.2791V19.7096C20.4615 20.0058 20.4031 20.2992 20.2897 20.5729C20.1763 20.8466 20.0102 21.0953 19.8006 21.3047M4.19927 21.3042C4.40874 21.5137 4.65744 21.6799 4.93115 21.7933C5.20487 21.9067 5.49824 21.965 5.7945 21.965H18.2053M4.19927 21.3042C3.98975 21.0948 3.82355 20.8461 3.71016 20.5724C3.59678 20.2987 3.53842 20.0054 3.53844 19.7091V13.2777L4.19927 21.3042ZM18.2053 21.965V22.0559C18.5134 22.056 18.8186 21.9954 19.1034 21.8775C19.3882 21.7597 19.6469 21.5869 19.8649 21.369L19.8006 21.3047M18.2053 21.965C18.5015 21.9651 18.7949 21.9068 19.0686 21.7935C19.3424 21.6802 19.5911 21.5142 19.8006 21.3047M12.9188 4.97648C13.0562 4.55276 13.2513 4.15482 13.5225 3.86725L13.5229 3.86724L13.549 3.84084C13.8434 3.54267 14.2001 3.39697 14.6514 3.39697C15.1539 3.39697 15.4843 3.58037 15.691 3.83411C15.9001 4.09091 15.9896 4.42878 15.9896 4.74542C15.9896 5.12561 15.8617 5.48893 15.6432 5.74233L15.6431 5.74241C15.4063 6.01769 15.0784 6.16069 14.6542 6.16078C14.6541 6.16078 14.654 6.16078 14.6539 6.16078L12.6713 6.14485C12.7134 5.78952 12.7898 5.37452 12.9188 4.97648ZM4.19185 7.64888H4.19186H9.46007V11.791H4.19186H4.19185C4.08743 11.791 3.98403 11.7705 3.88756 11.7305C3.79109 11.6906 3.70343 11.632 3.6296 11.5582C3.48048 11.4091 3.3967 11.2068 3.39669 10.9959V8.444V8.44399C3.39668 8.33957 3.41724 8.23618 3.4572 8.13971C3.49716 8.04325 3.55574 7.9556 3.62958 7.88178L3.62961 7.88176C3.70343 7.80791 3.79108 7.74933 3.88755 7.70937C3.98403 7.66942 4.08743 7.64886 4.19185 7.64888ZM4.9361 13.2791H9.46007V20.568H5.86341C5.35151 20.568 4.93632 20.153 4.9361 19.6412C4.9361 19.6411 4.9361 19.6411 4.9361 19.6411V13.2791ZM7.71788 4.7454C7.71788 4.37063 7.83613 4.0355 8.04707 3.79597C8.27762 3.53434 8.61255 3.39601 9.05554 3.39601C9.50194 3.39601 9.85386 3.53936 10.1401 3.83261C10.4217 4.12185 10.6205 4.53481 10.7576 4.97671C10.8826 5.3798 10.9545 5.80077 10.9925 6.16074H9.05554C8.52153 6.16075 8.19195 5.93872 7.99261 5.65594C7.78999 5.36852 7.71788 5.01176 7.71788 4.7454ZM10.9482 20.568V7.64888H13.0521V20.568H10.9482ZM18.1363 20.568H14.54V13.2791H19.0633V19.6411C19.0633 19.6411 19.0633 19.6411 19.0633 19.6412C19.0631 20.153 18.6482 20.5679 18.1363 20.568ZM20.3699 7.88176L20.4342 7.81749L20.3699 7.88176C20.519 8.03089 20.6028 8.23313 20.6028 8.44401V10.9959C20.6028 11.2068 20.519 11.409 20.3699 11.5582C20.2208 11.7073 20.0186 11.791 19.8077 11.791H14.54V7.64888H19.8077C19.9121 7.64887 20.0155 7.66943 20.112 7.70939C20.2085 7.74935 20.2961 7.80792 20.3699 7.88176Z" fill="white" stroke="white" stroke-width="0.181818"/>
    </svg>
    