<svg width="14" height="16" viewBox="0 0 14 16" fill="none" xmlns="http://www.w3.org/2000/svg">
    <path fill-rule="evenodd" clip-rule="evenodd"
        d="M2.005 7V5C2.005 2.23858 4.24358 0 7.005 0C9.76643 0 12.005 2.23858 12.005 5V7C13.1096 7 14.005 7.89543 14.005 9V14C14.005 15.1046 13.1096 16 12.005 16H2.005C0.900435 16 0.00500488 15.1046 0.00500488 14V9C0.00500488 7.89543 0.900435 7 2.005 7ZM10.005 5V7H4.005V5C4.005 3.34315 5.34815 2 7.005 2C8.66186 2 10.005 3.34315 10.005 5Z"
        fill="white" />
</svg>
    