<svg width="24" height="24" viewBox="0 0 24 24" fill="none" xmlns="http://www.w3.org/2000/svg">
    <path d="M14.4743 9.09961H9.56132C5.95781 9.09961 3.00937 12.048 3.00937 15.6518V16.0591C3.00937 17.9604 4.56468 19.5159 6.46593 19.5159H17.5697C19.4707 19.5159 21.0265 17.9604 21.0265 16.0591V15.6518C21.0265 12.048 18.0778 9.09961 14.4743 9.09961ZM13.3833 15.5974H10.6521C9.94312 15.5974 9.36234 15.0171 9.36234 14.3079C9.36234 13.5987 9.94288 13.0184 10.6521 13.0184H13.383C14.0925 13.0184 14.6728 13.5987 14.6728 14.3079C14.6728 15.0171 14.0925 15.5974 13.3833 15.5974Z" fill="#D9D9D9"/>
    <path d="M8.64072 4.95066C8.64072 5.40394 8.73 5.85278 8.90346 6.27155C9.07692 6.69032 9.33116 7.07083 9.65168 7.39134C9.97219 7.71186 10.3527 7.9661 10.7715 8.13956C11.1902 8.31303 11.6391 8.4023 12.0924 8.4023C12.5456 8.4023 12.9945 8.31303 13.4132 8.13956C13.832 7.9661 14.2125 7.71186 14.533 7.39134C14.8535 7.07083 15.1078 6.69032 15.2813 6.27155C15.4547 5.85278 15.544 5.40394 15.544 4.95066C15.544 4.49739 15.4547 4.04855 15.2813 3.62978C15.1078 3.21101 14.8535 2.8305 14.533 2.50999C14.2125 2.18947 13.832 1.93523 13.4132 1.76176C12.9945 1.5883 12.5456 1.49902 12.0924 1.49902C11.6391 1.49902 11.1902 1.5883 10.7715 1.76176C10.3527 1.93523 9.97219 2.18947 9.65168 2.50999C9.33116 2.8305 9.07692 3.21101 8.90346 3.62978C8.73 4.04855 8.64072 4.49739 8.64072 4.95066Z" fill="#D9D9D9"/>
    </svg>
    