<svg width="24" height="24" viewBox="0 0 24 24" fill="none" xmlns="http://www.w3.org/2000/svg">
    <path d="M2.15461 12.5541C2.06113 13.6003 2.21713 14.6723 2.64841 15.682C3.50101 17.6765 4.65517 19.5886 5.71765 21.4933C5.85373 21.7363 6.11953 21.8875 6.40693 21.8875H8.40277C8.83357 21.8875 9.18421 21.5529 9.18421 21.1418V20.2295C9.86472 20.3536 10.5551 20.4156 11.2468 20.4151C11.6977 20.4151 12.1372 20.3895 12.5705 20.3383L13.0726 21.4399C13.1977 21.7107 13.479 21.8873 13.7893 21.8873H15.7939C16.2247 21.8873 16.5754 21.5528 16.5754 21.1418V19.051C18.2092 18.1198 19.4481 16.7689 20.0465 15.1941L21.4771 14.482C21.6984 14.3711 21.8365 14.1542 21.8365 13.9151V11.5545C21.8365 11.201 21.5351 10.913 21.1648 10.9155L20.062 10.9197C19.6357 9.77947 18.8767 8.75683 17.8721 7.92139L18.7764 6.15259C18.9791 5.75215 18.7045 5.27899 18.2403 5.23663C17.1735 5.13631 15.3786 5.13835 13.8828 5.96923C13.6231 5.90684 13.361 5.85433 13.0973 5.81179C13.0817 5.85247 13.0637 5.89483 13.0461 5.93515C12.8764 6.31891 12.633 6.66187 12.3247 6.95611C12.2647 7.01359 12.2022 7.06867 12.1372 7.12195C12.3516 7.14127 12.5436 7.16467 12.7023 7.18819C12.9924 7.23055 13.1842 7.50139 13.1148 7.77379V7.77631C13.0549 8.01679 12.8093 8.17255 12.5523 8.13643C11.6797 8.01055 9.69061 7.85935 7.90945 8.66239C7.67521 8.76907 7.39141 8.68387 7.26205 8.46883C7.11457 8.22571 7.21753 7.91467 7.48285 7.79503C7.74892 7.67633 8.0217 7.57331 8.29981 7.48651C8.03292 7.34351 7.78664 7.16501 7.56769 6.95587C7.4049 6.79978 7.25831 6.62762 7.13017 6.44203C6.15241 6.83419 5.24185 7.37371 4.45597 8.06383C3.10993 9.24439 2.30653 10.8662 2.15437 12.5539L2.15461 12.5541ZM15.4431 11.0707C15.4431 10.54 15.8919 10.1117 16.4477 10.1117C17.0037 10.1117 17.452 10.5399 17.452 11.0707C17.452 11.6014 17.0037 12.0296 16.4477 12.0296C15.892 12.0296 15.4431 11.6014 15.4431 11.0707Z" fill="#D9D9D9"/>
    <path fill-rule="evenodd" clip-rule="evenodd" d="M7.35938 4.74894C7.35938 3.30846 8.54426 2.1123 9.98474 2.1123C11.4253 2.1123 12.5929 3.2799 12.5929 4.72038C12.5929 6.16086 11.4081 7.35702 9.96757 7.35702C8.52709 7.35702 7.35938 6.1893 7.35938 4.74894ZM10.7125 4.8219C10.772 4.86206 10.8252 4.91078 10.8705 4.9665C10.9161 5.02355 10.9515 5.08806 10.9752 5.15718C11.001 5.22942 11.0137 5.31162 11.0137 5.40342C11.0137 5.5419 10.988 5.66382 10.9368 5.7693C10.8871 5.8729 10.8138 5.96343 10.7229 6.03366C10.632 6.10458 10.5234 6.15762 10.3975 6.1929C10.3038 6.21866 10.2078 6.23487 10.1109 6.24126V6.44598H9.88844V6.24186C9.78856 6.23343 9.69021 6.21201 9.59588 6.17814C9.47244 6.1348 9.35793 6.06933 9.25796 5.98494C9.15841 5.90025 9.07688 5.79644 9.0182 5.67966C8.95724 5.5599 8.92436 5.42538 8.92004 5.2761H9.23432C9.24071 5.37262 9.26441 5.46721 9.30428 5.55534C9.34211 5.63852 9.39541 5.71373 9.46136 5.77698C9.52834 5.84036 9.60716 5.88991 9.69332 5.92278C9.75607 5.94674 9.82172 5.96228 9.88856 5.96898V4.80846C9.87916 4.80558 9.86976 4.80272 9.86037 4.79985C9.81893 4.78721 9.77756 4.7746 9.73628 4.7607C9.65936 4.73514 9.5852 4.7061 9.51356 4.6737C9.4418 4.6413 9.3752 4.6035 9.3134 4.56054C9.25148 4.51758 9.19772 4.4679 9.15164 4.41138C9.10461 4.35283 9.06792 4.28668 9.04316 4.21578C9.01676 4.14198 9.00368 4.0575 9.00368 3.96246C9.00368 3.84498 9.0266 3.7407 9.07256 3.6495C9.11813 3.55894 9.18475 3.48063 9.26684 3.42114C9.35072 3.36006 9.45044 3.31374 9.5666 3.28206C9.66488 3.25542 9.77336 3.24258 9.88856 3.23826V3.05118H10.111V3.24294C10.2267 3.25434 10.3281 3.27774 10.4134 3.31482C10.5364 3.36846 10.635 3.43662 10.7097 3.51954C10.7822 3.59883 10.8372 3.69239 10.8714 3.79422C10.9032 3.88817 10.9229 3.9858 10.93 4.08474H10.6182C10.6106 3.99018 10.588 3.90678 10.5505 3.83478C10.5128 3.76266 10.4643 3.70218 10.4049 3.65346C10.3455 3.60474 10.2769 3.56802 10.1996 3.54318C10.1715 3.53424 10.1423 3.52865 10.1129 3.523L10.1112 3.52266V4.56522C10.172 4.58454 10.2327 4.60398 10.2936 4.62414C10.3688 4.64924 10.4427 4.67828 10.515 4.71114C10.5838 4.7425 10.6498 4.77955 10.7125 4.8219ZM9.84551 4.47896C9.86002 4.48353 9.87454 4.48811 9.8888 4.49286H9.88892V3.50934C9.83136 3.51197 9.7741 3.51915 9.71768 3.53082C9.64505 3.54583 9.57534 3.57254 9.51128 3.6099C9.45177 3.64456 9.40141 3.69295 9.3644 3.75102C9.32756 3.8091 9.3092 3.88026 9.3092 3.9645C9.3092 4.05186 9.33008 4.1259 9.3722 4.18698C9.41432 4.24806 9.4706 4.30038 9.54044 4.34406C9.61668 4.39072 9.69775 4.42898 9.78224 4.45818C9.80275 4.46548 9.82412 4.47221 9.84551 4.47896ZM10.4906 5.84502C10.5571 5.7995 10.6118 5.73862 10.6498 5.66754C10.6892 5.59506 10.7086 5.50698 10.7088 5.40282C10.7088 5.31846 10.6874 5.24646 10.6444 5.18694C10.5986 5.12494 10.541 5.07268 10.4748 5.03322C10.4048 4.99026 10.3255 4.95342 10.2374 4.92258C10.2102 4.91298 10.1822 4.90395 10.1542 4.89491C10.1399 4.89028 10.1255 4.88565 10.1113 4.88094V5.96814C10.1613 5.96361 10.2109 5.95571 10.2598 5.9445C10.3466 5.9241 10.4234 5.8911 10.4906 5.84502Z" fill="#D9D9D9"/>
    </svg>
    