<svg width="23" height="23" viewBox="0 0 23 23" fill="none" xmlns="http://www.w3.org/2000/svg">
    <path d="M6.66208 9.25663C6.66208 9.89196 6.78722 10.5211 7.03034 11.108C7.27347 11.695 7.62983 12.2283 8.07908 12.6776C8.52832 13.1268 9.06165 13.4832 9.64861 13.7263C10.2356 13.9694 10.8647 14.0946 11.5 14.0946C12.1353 14.0946 12.7644 13.9694 13.3514 13.7263C13.9384 13.4832 14.4717 13.1268 14.9209 12.6776C15.3702 12.2283 15.7265 11.695 15.9697 11.108C16.2128 10.5211 16.3379 9.89196 16.3379 9.25663C16.3379 8.6213 16.2128 7.9922 15.9697 7.40523C15.7265 6.81827 15.3702 6.28494 14.9209 5.8357C14.4717 5.38645 13.9384 5.0301 13.3514 4.78697C12.7644 4.54384 12.1353 4.4187 11.5 4.4187C10.8647 4.4187 10.2356 4.54384 9.64861 4.78697C9.06165 5.0301 8.52832 5.38645 8.07908 5.8357C7.62983 6.28494 7.27347 6.81827 7.03034 7.40523C6.78722 7.9922 6.66208 8.6213 6.66208 9.25663Z" fill="#D9D9D9"/>
    <path d="M15.2491 13.6466C14.3619 14.7331 13.0121 15.4299 11.5 15.4299C9.98796 15.4299 8.63812 14.7315 7.75096 13.6451C4.96358 14.5887 3.04706 16.9804 3.04706 19.249C3.04706 21.3154 19.953 21.3154 19.953 19.249C19.953 16.9804 18.0364 14.5902 15.2491 13.6466ZM18.1684 7.30738C17.377 4.36219 14.6875 2.19897 11.5 2.19897C8.3146 2.19897 5.62654 4.35934 4.83322 7.30154C4.0936 7.45241 3.51425 8.19721 3.51425 9.09397C3.51425 10.0996 4.24263 10.9112 5.10877 10.9112C5.54027 10.9112 5.75675 10.0175 5.7583 9.09664H5.77629C5.77629 5.95211 8.34395 3.37647 11.5001 3.37647C14.5817 3.37647 17.1019 5.83257 17.2191 8.8803C17.1828 9.85557 17.3978 10.9139 17.8646 10.9139C18.7307 10.9139 19.4591 10.0992 19.4591 9.09354C19.4591 8.2082 18.8944 7.47121 18.1684 7.30738Z" fill="#D9D9D9"/>
    </svg>
    