<svg width="19" height="19" viewBox="0 0 19 19" fill="none" xmlns="http://www.w3.org/2000/svg">
    <path d="M17.2974 3.71594C17.2846 3.31367 17.1132 2.93279 16.8206 2.65642C16.528 2.38005 16.138 2.23061 15.7357 2.24072H1.55527C1.15386 2.23172 0.765149 2.38172 0.473836 2.65804C0.182522 2.93436 0.012209 3.31461 0 3.71594L0 5.36269H17.2974V3.71594ZM13.7934 7.91883C14.3881 7.75049 16.3477 7.68142 17.2974 8.47827V6.20254H0V13.779C0.0126818 14.1806 0.183458 14.5609 0.475162 14.8372C0.766866 15.1135 1.15589 15.2633 1.55756 15.2542L10.9294 15.2483C10.5266 14.595 10.2504 13.8717 10.1152 13.1162C10.0718 12.5673 9.95739 8.69418 13.7934 7.91883Z" fill="#D9D9D9"/>
    <path d="M15.0423 15.8333C14.286 15.8334 13.5508 15.5836 12.9511 15.1227C12.3514 14.6618 11.9209 14.0156 11.7264 13.2847C11.532 12.5538 11.5845 11.7791 11.8759 11.0811C12.1673 10.3831 12.6812 9.80104 13.3376 9.42534C13.994 9.04964 14.7562 8.9014 15.5056 9.00369C16.255 9.10598 16.9496 9.45306 17.4813 9.99095C18.0131 10.5288 18.3521 11.2274 18.4458 11.9779C18.5395 12.7284 18.3825 13.4888 17.9993 14.1409C17.6965 14.6561 17.2644 15.0833 16.7457 15.3801C16.2271 15.677 15.6399 15.8332 15.0423 15.8333ZM14.8292 13.1192V14.2216C14.8292 14.2807 14.8483 14.3382 14.8836 14.3855C14.9189 14.4329 14.9685 14.4676 15.0251 14.4845C15.0513 14.4925 15.0785 14.4966 15.1058 14.4966C15.1509 14.4967 15.1952 14.4856 15.235 14.4644C15.2748 14.4433 15.3087 14.4126 15.3338 14.3752L16.8761 12.8344C16.9057 12.8099 16.9298 12.7794 16.947 12.7449C16.9641 12.7105 16.9738 12.6728 16.9756 12.6344C16.9773 12.596 16.971 12.5576 16.957 12.5218C16.9431 12.4859 16.9218 12.4534 16.8945 12.4262L15.0075 10.5392L15.2891 10.8236C15.2394 10.7786 15.1748 10.7538 15.1078 10.7539H15.105C15.0323 10.7539 14.9625 10.7827 14.9111 10.8342C14.8597 10.8856 14.8308 10.9553 14.8308 11.0281V11.8621H14.8269C14.5967 11.862 14.3709 11.9251 14.1742 12.0445C13.9774 12.1639 13.8172 12.3351 13.7111 12.5393C13.605 12.7435 13.5569 12.973 13.5723 13.2027C13.5876 13.4323 13.6658 13.6533 13.7981 13.8416C13.8757 13.6304 14.016 13.448 14.2003 13.3189C14.3845 13.1897 14.6038 13.1201 14.8288 13.1192H14.8292Z" fill="#D9D9D9"/>
    </svg>
    