<svg width="24" height="24" viewBox="0 0 24 24" fill="none" xmlns="http://www.w3.org/2000/svg">
    <path opacity="1" fill-rule="evenodd" clip-rule="evenodd" d="M16.2793 7.00976L21.1432 7.71389C21.7098 7.79839 22.2202 8.10276 22.5639 8.56102C22.9076 9.01929 23.0569 9.59453 22.9794 10.1621C22.909 10.6333 22.6815 11.072 22.3457 11.4024L18.825 14.8364L19.6591 19.6787C19.7566 20.2474 19.6266 20.8215 19.2908 21.2927C18.955 21.764 18.4567 22.0781 17.888 22.1756C17.4222 22.2569 16.9347 22.181 16.5176 21.959L12.1629 19.6732L7.81352 21.9644C7.50527 22.129 7.16097 22.2146 6.8115 22.2135C6.59484 22.2135 6.37819 22.181 6.16695 22.116C5.61448 21.9427 5.16492 21.5636 4.8941 21.0544C4.67744 20.6374 4.5962 20.1499 4.67745 19.6841L5.50615 14.8364L1.98551 11.4079C1.57592 11.0064 1.34199 10.459 1.33488 9.88556C1.32778 9.31207 1.54808 8.7591 1.94759 8.34761C2.27799 8.00638 2.72213 7.7843 3.18794 7.71389L8.05184 7.00976L10.2238 2.60084C10.3493 2.3461 10.524 2.11874 10.7378 1.93188C10.9516 1.74503 11.2003 1.60237 11.4696 1.51214C11.7385 1.42074 12.0229 1.38326 12.3064 1.40185C12.5898 1.42044 12.8668 1.49473 13.1216 1.62047C13.5454 1.8331 13.8893 2.17696 14.1019 2.60084L16.2793 7.00976ZM16.6855 15.2047C16.5664 14.5006 16.7993 13.7856 17.3084 13.2873L20.8291 9.85336L15.9706 9.15465C15.261 9.05174 14.6544 8.60759 14.3403 7.96846L12.1629 3.56495L9.98007 7.96846C9.66051 8.60218 9.05387 9.04632 8.34974 9.14923L3.48584 9.85878L7.00649 13.2873C7.51562 13.7856 7.74853 14.5006 7.62937 15.2047L6.80066 20.0524L11.15 17.7613C11.4609 17.5985 11.8066 17.5135 12.1575 17.5135C12.5084 17.5135 12.854 17.5985 13.1649 17.7613L17.5197 20.047L16.6855 15.2047ZM11.7443 13.5783C12.5514 13.6595 13.3746 13.0204 13.9325 12.4625C14.1348 12.2606 14.4083 12.1463 14.694 12.1443C14.9798 12.1422 15.2549 12.2526 15.4599 12.4517C15.8824 12.8741 15.8824 13.562 15.4599 13.9845C14.2954 15.1544 13.0984 15.7448 11.9014 15.7448C11.7606 15.7448 11.6252 15.7394 11.4843 15.7231C9.63193 15.5119 8.62448 13.9682 8.51616 13.7949C8.20201 13.2912 8.35366 12.6196 8.8628 12.3054C9.10585 12.1542 9.39884 12.1052 9.67787 12.1691C9.95691 12.233 10.1993 12.4047 10.3523 12.6466C10.374 12.6791 10.9156 13.4916 11.7443 13.5783Z" fill="white"/>
    </svg>
    