<svg width="24" height="24" viewBox="0 0 24 24" fill="none" xmlns="http://www.w3.org/2000/svg">
    <path opacity="1" d="M15.1601 8.08359L11.0325 11.0219C11.4844 11.9527 11.5673 13.02 11.2646 14.0094L16.2032 16.4848C16.6378 15.9819 17.2409 15.6549 17.8995 15.5649C18.558 15.4749 19.2267 15.6281 19.7804 15.9959C20.334 16.3637 20.7344 16.9208 20.9067 17.5628C21.0789 18.2047 21.0112 18.8874 20.7161 19.483C20.4209 20.0785 19.9188 20.546 19.3036 20.7978C18.6885 21.0495 18.0027 21.0683 17.3747 20.8506C16.7467 20.6329 16.2197 20.1936 15.8924 19.6151C15.5652 19.0366 15.4601 18.3586 15.597 17.7082L10.6502 15.2286C10.1556 15.9036 9.46622 16.4108 8.67473 16.6822C7.88323 16.9536 7.02761 16.9761 6.22295 16.7467C5.41829 16.5172 4.7032 16.0469 4.17386 15.3989C3.64452 14.7508 3.32633 13.9563 3.26209 13.122C3.19785 12.2877 3.39064 11.4538 3.81453 10.7324C4.23842 10.011 4.87307 9.4367 5.63312 9.08677C6.39317 8.73685 7.24215 8.62808 8.06586 8.77509C8.88957 8.92211 9.64851 9.31786 10.2406 9.90911L14.3599 6.97763C14.1173 6.35883 14.1087 5.67278 14.3357 5.04808C14.5627 4.42339 15.0098 3.90293 15.5931 3.58428C16.1764 3.26563 16.8559 3.17066 17.5042 3.31717C18.1525 3.46369 18.7251 3.84162 19.1147 4.38014C19.5043 4.91866 19.6841 5.58078 19.6205 6.24238C19.5568 6.90399 19.254 7.51967 18.7689 7.97399C18.2837 8.42832 17.6495 8.69011 16.9851 8.71028C16.3208 8.73046 15.6719 8.50764 15.1601 8.08359Z" fill="white"/>
    </svg>
    