<svg width="24" height="24" viewBox="0 0 24 24" fill="none" xmlns="http://www.w3.org/2000/svg">
    <path fill-rule="evenodd" clip-rule="evenodd" d="M11.9991 3.47059C12.6813 3.47059 13.2344 2.91753 13.2344 2.23529C13.2344 1.55306 12.6813 1 11.9991 1C11.3169 1 10.7638 1.55306 10.7638 2.23529C10.7638 2.91753 11.3169 3.47059 11.9991 3.47059ZM7.05791 3.47059C7.05791 4.15282 6.50485 4.70588 5.82262 4.70588C5.14038 4.70588 4.58732 4.15282 4.58732 3.47059C4.58732 2.78835 5.14038 2.23529 5.82262 2.23529C6.50485 2.23529 7.05791 2.78835 7.05791 3.47059ZM6.44026 9.02941L5.82262 5.94118L7.67556 4.70588L9.5285 5.94118L10.7638 4.08824H12.6167L13.852 5.94118L15.705 4.70588L17.5579 5.94118L16.9403 9.02941H6.44026ZM5.82262 10.8824C5.82262 10.2001 6.37568 9.64706 7.05791 9.64706H16.9403C17.6225 9.64706 18.1756 10.2001 18.1756 10.8824H5.82262ZM7.05768 12.1181H2.11628C1.43404 12.1181 0.880981 12.6712 0.880981 13.3534V20.7652C0.880981 21.4474 1.43404 22.0005 2.11628 22.0005H7.05768V12.1181ZM8.29298 22.0005V12.1181H14.4694V22.0005H8.29298ZM15.7047 22.0005H21.881C22.5632 22.0005 23.1163 21.4474 23.1163 20.7652V13.3534C23.1163 12.6712 22.5632 12.1181 21.881 12.1181H15.7047V22.0005ZM19.4109 3.47059C19.4109 4.15282 18.8578 4.70588 18.1756 4.70588C17.4933 4.70588 16.9403 4.15282 16.9403 3.47059C16.9403 2.78835 17.4933 2.23529 18.1756 2.23529C18.8578 2.23529 19.4109 2.78835 19.4109 3.47059ZM4.81511 15.7125L2.75991 19.5981C2.7385 19.641 2.72779 19.6838 2.72779 19.7266C2.70638 19.7908 2.69568 19.8443 2.69568 19.8871C2.7385 20.2511 2.96328 20.4331 3.37004 20.4331C3.62694 20.4545 3.84103 20.2939 4.01229 19.9514C4.0337 19.93 4.05511 19.8979 4.07652 19.855L6.09961 15.7125C6.22806 15.477 6.29229 15.2951 6.29229 15.1666C6.22806 14.8027 6.02468 14.61 5.68215 14.5886H2.72779C2.32103 14.61 2.11765 14.792 2.11765 15.1345C2.11765 15.5198 2.32103 15.7125 2.72779 15.7125H4.81511ZM12.2269 15.7125L10.1717 19.5981C10.1503 19.641 10.1396 19.6838 10.1396 19.7266C10.1181 19.7908 10.1074 19.8443 10.1074 19.8871C10.1503 20.2511 10.375 20.4331 10.7818 20.4331C11.0387 20.4545 11.2528 20.2939 11.4241 19.9514C11.4455 19.93 11.4669 19.8979 11.4883 19.855L13.5114 15.7125C13.6398 15.477 13.704 15.2951 13.704 15.1666C13.6398 14.8027 13.4364 14.61 13.0939 14.5886H10.1396C9.7328 14.61 9.52942 14.792 9.52942 15.1345C9.52942 15.5198 9.7328 15.7125 10.1396 15.7125H12.2269ZM18.8187 19.5981L20.8739 15.7125H18.7866C18.3799 15.7125 18.1765 15.5198 18.1765 15.1345C18.1765 14.792 18.3799 14.61 18.7866 14.5886H21.741C22.0835 14.61 22.2869 14.8027 22.3511 15.1666C22.3511 15.2951 22.2869 15.477 22.1584 15.7125L20.1353 19.855C20.1139 19.8979 20.0925 19.93 20.0711 19.9514C19.8999 20.2939 19.6858 20.4545 19.4289 20.4331C19.0221 20.4331 18.7973 20.2511 18.7545 19.8871C18.7545 19.8443 18.7652 19.7908 18.7866 19.7266C18.7866 19.6838 18.7973 19.641 18.8187 19.5981Z" fill="white"/>
    </svg>
    