<svg width="27" height="27" viewBox="0 0 27 27" fill="none" xmlns="http://www.w3.org/2000/svg">
    <circle cx="13.5" cy="13.5" r="13.5" fill="white" fill-opacity="0.3" />
    <path fill-rule="evenodd" clip-rule="evenodd"
        d="M7.55178 15.4548L6.79116 10.7017C6.74116 10.3898 6.87866 10.0773 7.14241 9.90359C7.40616 9.72984 7.74678 9.72672 8.01366 9.89484L10.3968 11.3998L12.8943 8.53734C13.0468 8.36234 13.268 8.26172 13.4999 8.26172C13.7318 8.26172 13.953 8.36234 14.1055 8.53734L16.603 11.3998L18.9862 9.89484C19.253 9.72672 19.5937 9.72984 19.8574 9.90359C20.1212 10.0773 20.2587 10.3898 20.2087 10.7017L19.448 15.4548H7.55178ZM19.298 16.3923L19.0762 17.778C18.988 18.3305 18.5112 18.7367 17.9524 18.7367H9.04741C8.48866 18.7367 8.01178 18.3305 7.92366 17.778L7.70178 16.3923H19.298Z"
        fill="white" />
</svg>
    