<svg width="27" height="27" viewBox="0 0 27 27" fill="none" xmlns="http://www.w3.org/2000/svg">
    <circle cx="13.5" cy="13.5" r="13.5" fill="white" fill-opacity="0.3" />
    <path
        d="M11.5884 12.9422C14.706 15.0921 18.7063 11.8911 17.3186 8.38111C16.5172 6.19502 13.5865 5.32551 11.7271 6.5749C9.43701 7.98296 9.3668 11.4455 11.5884 12.9422ZM14.0033 10.0883H13.5418C13.2898 10.0858 13.0486 9.98551 12.869 9.80871C12.6894 9.63192 12.5853 9.39235 12.5787 9.1404C12.5721 8.88845 12.6635 8.64376 12.8336 8.45781C13.0038 8.27185 13.2394 8.15913 13.4909 8.14334L13.4909 7.90835C13.4911 7.83342 13.5211 7.76164 13.5741 7.70874C13.6272 7.65583 13.6991 7.62613 13.774 7.62613C13.8489 7.62613 13.9208 7.65583 13.9739 7.70874C14.027 7.76164 14.0569 7.83342 14.0571 7.90835V8.13768H14.697C14.771 8.13921 14.8415 8.16971 14.8934 8.22264C14.9452 8.27557 14.9743 8.3467 14.9743 8.42079C14.9743 8.49487 14.9452 8.56601 14.8934 8.61893C14.8415 8.67186 14.771 8.70236 14.697 8.7039H13.5418C13.4347 8.70589 13.3325 8.74987 13.2574 8.82638C13.1824 8.90289 13.1403 9.00581 13.1403 9.11301C13.1403 9.22021 13.1824 9.32313 13.2575 9.39964C13.3326 9.47614 13.4347 9.52012 13.5419 9.52211H14.0033C14.2556 9.52399 14.4973 9.62373 14.6774 9.8003C14.8576 9.97687 14.9622 10.2165 14.9692 10.4687C14.9761 10.7208 14.8849 10.9659 14.7148 11.1521C14.5447 11.3384 14.3089 11.4513 14.0571 11.4671L14.0571 11.7021C14.0572 11.7394 14.05 11.7763 14.0358 11.8107C14.0217 11.8452 14.0008 11.8765 13.9745 11.9029C13.9482 11.9293 13.917 11.9502 13.8826 11.9645C13.8481 11.9788 13.8113 11.9861 13.774 11.9861C13.7367 11.9861 13.6999 11.9788 13.6655 11.9645C13.631 11.9502 13.5998 11.9293 13.5735 11.9029C13.5472 11.8765 13.5264 11.8452 13.5122 11.8107C13.498 11.7763 13.4908 11.7394 13.4909 11.7021V11.4728H12.851C12.7769 11.4713 12.7063 11.4408 12.6544 11.3879C12.6025 11.335 12.5735 11.2638 12.5735 11.1897C12.5735 11.1155 12.6025 11.0443 12.6544 10.9914C12.7063 10.9385 12.7769 10.908 12.8511 10.9065H14.0033C14.111 10.9053 14.2138 10.8616 14.2894 10.785C14.3651 10.7084 14.4075 10.6051 14.4075 10.4974C14.4075 10.3898 14.3651 10.2865 14.2894 10.2099C14.2138 10.1333 14.111 10.0896 14.0033 10.0883Z"
        fill="white" />
    <path
        d="M19.3566 13.1623C19.2408 13.0351 19.1004 12.9327 18.9439 12.8612C18.7874 12.7897 18.618 12.7507 18.4461 12.7465C18.2741 12.7422 18.103 12.7729 17.9432 12.8366C17.7834 12.9002 17.6381 12.9956 17.5162 13.117L15.6503 14.9885C15.7783 15.2682 15.8341 15.5755 15.8124 15.8824C15.7908 16.1892 15.6925 16.4857 15.5265 16.7447C15.3606 17.0036 15.1322 17.2168 14.8625 17.3646C14.5927 17.5124 14.2902 17.5901 13.9826 17.5906L11.7971 17.5931C11.723 17.5917 11.6523 17.5613 11.6003 17.5084C11.5483 17.4556 11.5192 17.3844 11.5191 17.3103C11.519 17.2361 11.548 17.1649 11.5999 17.1119C11.6517 17.0589 11.7223 17.0283 11.7965 17.0268L13.9826 17.0243C14.1495 17.0245 14.3149 16.9919 14.4691 16.9282C14.6234 16.8645 14.7636 16.771 14.8818 16.653C14.9999 16.5351 15.0936 16.395 15.1575 16.2408C15.2215 16.0866 15.2544 15.9213 15.2544 15.7544C15.2544 15.5875 15.2215 15.4222 15.1575 15.268C15.0936 15.1138 14.9999 14.9737 14.8818 14.8558C14.7636 14.7379 14.6234 14.6444 14.4691 14.5806C14.3149 14.5169 14.1495 14.4843 13.9826 14.4845L9.88275 14.4874C9.49186 14.4913 9.11799 14.6478 8.84079 14.9234L7.33447 16.4325L10.8567 19.9605C11.76 19.8359 14.345 19.4791 14.345 19.4791C14.7026 19.4303 15.0346 19.2663 15.2907 19.0119L19.3481 14.946C19.5827 14.709 19.715 14.3894 19.7166 14.0559C19.7182 13.7224 19.5889 13.4015 19.3566 13.1623Z"
        fill="white" />
    <path
        d="M7.13627 17.0306C7.08675 16.9597 7.02273 16.9001 6.94846 16.8558C6.87418 16.8115 6.79135 16.7835 6.70543 16.7735C6.61951 16.7636 6.53246 16.7721 6.45006 16.7984C6.36765 16.8246 6.29176 16.8681 6.2274 16.9258L5.16564 17.9904C5.11313 18.0428 5.07148 18.105 5.04305 18.1736C5.01463 18.2421 5 18.3155 5 18.3897C5 18.4638 5.01463 18.5373 5.04305 18.6058C5.07148 18.6743 5.11313 18.7365 5.16564 18.7889L8.04517 21.6741C8.15286 21.779 8.29744 21.8375 8.4478 21.837C8.59817 21.8365 8.74233 21.777 8.84928 21.6713L9.91105 20.6067C10.0152 20.5004 10.0735 20.3576 10.0735 20.2088C10.0735 20.0601 10.0152 19.9173 9.91105 19.811C9.60945 19.5076 7.44592 17.3476 7.13627 17.0306Z"
        fill="white" />
</svg>
    