<svg width="27" height="27" viewBox="0 0 27 27" fill="none" xmlns="http://www.w3.org/2000/svg">
    <circle cx="13.5" cy="13.5" r="13.5" fill="white" fill-opacity="0.3" />
    <path
        d="M21.5307 14.2847C21.4578 14.1357 21.4578 13.9648 21.5307 13.8158L22.2057 12.4348C22.5816 11.6659 22.2838 10.7494 21.5278 10.3482L20.1699 9.62774C20.0234 9.55004 19.9229 9.41174 19.8943 9.24845L19.6287 7.73435C19.4808 6.89134 18.701 6.32486 17.8537 6.44473L16.3317 6.66003C16.1674 6.68322 16.005 6.6304 15.8858 6.51512L14.781 5.44635C14.1659 4.85123 13.2022 4.8512 12.587 5.44635L11.4822 6.51523C11.363 6.63055 11.2006 6.68326 11.0363 6.66014L9.5143 6.44484C8.66673 6.32489 7.88722 6.89145 7.73934 7.73445L7.47377 9.24848C7.4451 9.41181 7.34467 9.55007 7.1982 9.62781L5.84032 10.3483C5.08428 10.7494 4.78647 11.666 5.16234 12.4349L5.83739 13.8159C5.91021 13.9649 5.91021 14.1358 5.83739 14.2848L5.1623 15.6658C4.78644 16.4347 5.08424 17.3512 5.84029 17.7524L7.19817 18.4729C7.34467 18.5506 7.4451 18.6889 7.47377 18.8522L7.73934 20.3663C7.87396 21.1337 8.532 21.6719 9.28829 21.6718C9.36278 21.6718 9.43836 21.6666 9.51434 21.6558L11.0364 21.4405C11.2005 21.4172 11.363 21.4702 11.4823 21.5855L12.587 22.6542C12.8947 22.9518 13.2893 23.1006 13.684 23.1005C14.0787 23.1005 14.4735 22.9517 14.781 22.6542L15.8858 21.5855C16.005 21.4702 16.1675 21.4175 16.3317 21.4405L17.8537 21.6558C18.7014 21.7758 19.4808 21.2092 19.6287 20.3662L19.8943 18.8522C19.923 18.6889 20.0234 18.5506 20.1699 18.4729L21.5278 17.7524C22.2838 17.3513 22.5816 16.4347 22.2057 15.6658L21.5307 14.2847ZM11.5961 9.35249C12.6514 9.35249 13.51 10.2111 13.51 11.2664C13.51 12.3218 12.6514 13.1804 11.5961 13.1804C10.5408 13.1804 9.68215 12.3218 9.68215 11.2664C9.68215 10.2111 10.5408 9.35249 11.5961 9.35249ZM10.6082 17.8642C10.5063 17.9662 10.3727 18.0171 10.2391 18.0171C10.1056 18.0171 9.97194 17.9662 9.87005 17.8642C9.66621 17.6604 9.66621 17.3299 9.87005 17.1261L16.7598 10.2363C16.9636 10.0325 17.2942 10.0325 17.498 10.2363C17.7018 10.4401 17.7018 10.7706 17.498 10.9745L10.6082 17.8642ZM15.7719 18.7481C14.7166 18.7481 13.858 17.8895 13.858 16.8342C13.858 15.7789 14.7166 14.9203 15.7719 14.9203C16.8272 14.9203 17.6858 15.7789 17.6858 16.8342C17.6858 17.8895 16.8272 18.7481 15.7719 18.7481Z"
        fill="white" />
    <path
        d="M15.7718 15.9648C15.2921 15.9648 14.9019 16.3551 14.9019 16.8348C14.9019 17.3145 15.2921 17.7047 15.7718 17.7047C16.2515 17.7047 16.6418 17.3145 16.6418 16.8348C16.6418 16.3551 16.2515 15.9648 15.7718 15.9648Z"
        fill="white" />
    <path
        d="M11.596 10.3984C11.1163 10.3984 10.7261 10.7887 10.7261 11.2684C10.7261 11.7481 11.1163 12.1384 11.596 12.1384C12.0757 12.1384 12.466 11.7481 12.466 11.2684C12.466 10.7887 12.0757 10.3984 11.596 10.3984Z"
        fill="white" />
</svg>
    