<svg width="18" height="18" viewBox="0 0 18 18" fill="none" xmlns="http://www.w3.org/2000/svg">
    <path
        d="M12.8042 13.4441C13.3609 13.4441 13.732 13.8152 13.732 14.3719V14.9686C13.732 15.8676 13.7032 17.1554 12.8042 17.1554C12.2475 17.1554 11.8763 16.7843 11.8763 16.2276V15.6309C11.8763 14.7319 11.9052 13.4441 12.8042 13.4441ZM15.5877 11.5884H16.5155C17.0722 11.5884 17.4434 11.9595 17.4434 12.5162C17.4434 13.0729 17.0722 13.4441 16.5155 13.4441H15.5877C15.031 13.4441 14.6599 13.0729 14.6599 12.5162C14.6599 11.9595 15.031 11.5884 15.5877 11.5884ZM2.59795 6.02135C1.91919 6.02135 1.06174 6.04505 0.80559 5.41648C0.764761 5.31629 0.742271 5.20772 0.742271 5.09351C0.742271 4.53681 1.11341 4.16567 1.67011 4.16567C2.34886 4.16567 3.20632 4.14198 3.46247 4.77054C3.5033 4.87073 3.52579 4.97931 3.52579 5.09351C3.52579 5.65022 3.15465 6.02135 2.59795 6.02135ZM11.0202 7.93782C10.9945 8.36464 10.622 8.66738 10.1964 8.70812C9.93749 8.7329 9.67166 8.64144 9.46395 8.43373C8.35055 7.32033 6.58766 7.32033 5.56703 8.43373L2.94039 11.0604C2.89794 11.1028 2.84893 11.1382 2.79523 11.165C2.72631 11.1995 2.66464 11.2474 2.6177 11.3085C1.76364 12.4203 1.79042 14.0283 2.78352 15.0214C3.89692 16.1348 5.65982 16.1348 6.68044 15.0214L8.6289 13.0729C8.69068 13.0111 8.75538 12.9513 8.83163 12.9087C8.99134 12.8194 9.1734 12.7754 9.34873 12.7825C9.79455 12.8005 10.1762 13.222 10.2045 13.6673C10.2203 13.9173 10.1281 14.1716 9.92787 14.3719L7.97941 16.3204L7.79385 16.5059C5.93817 18.176 3.15465 18.0833 1.39176 16.3204C-0.463919 14.4647 -0.463919 11.5884 1.39176 9.73271L3.98971 7.13476L4.17527 6.94919C5.80443 5.48295 8.14874 5.37548 9.8897 6.564C10.3812 6.89952 11.056 7.34381 11.0202 7.93782ZM5.38146 4.16567C4.82476 4.16567 4.45363 3.79454 4.45363 3.23783V2.64116C4.45363 1.74217 4.48248 0.454319 5.38146 0.454319C5.93817 0.454319 6.3093 0.825455 6.3093 1.38216V1.97884C6.3093 2.87783 6.28045 4.16567 5.38146 4.16567Z"
        fill="white" />
    <path
        d="M14.0103 10.4751L13.8247 10.6607C11.969 12.3308 9.18553 12.238 7.42264 10.4751C7.0515 10.104 7.0515 9.54731 7.42264 9.17617C7.79377 8.80504 8.35048 8.80504 8.72161 9.17617C9.83502 10.2896 11.5979 10.2896 12.6185 9.17617L15.2165 6.57822L15.3093 6.48544C16.2371 5.37203 16.2371 3.70192 15.2165 2.6813C14.1031 1.56789 12.3402 1.56789 11.3196 2.6813L9.3711 4.62976C9.30932 4.69154 9.24462 4.75137 9.16837 4.79401C9.00866 4.88331 8.8266 4.92732 8.65127 4.92022C8.20545 4.90216 7.82379 4.48068 7.79552 4.0354C7.77965 3.78537 7.87185 3.53106 8.07213 3.33079L10.0206 1.38233L10.2062 1.19676C12.0618 -0.473351 14.8453 -0.380567 16.6082 1.38233C18.4639 3.238 18.4639 6.1143 16.6082 7.96998L14.0103 10.4751Z"
        fill="white" />
</svg>
    